<?xml version="1.0" encoding="UTF-8" standalone="no"?>
<!-- Generator: Fusion 360, Shaper Origin Export Add-In, Version 1.9.0  -->

<svg
   shaper:fusionaddin="version:1.9.0"
   width="16.1cm"
   height="10.34cm"
   version="1.1"
   x="0cm"
   y="0cm"
   viewBox="0 0 16.1 10.34"
   enable-background="new 0 0 16.1 10.34"
   xml:space="preserve"
   id="svg17"
   sodipodi:docname="Plate.svg"
   inkscape:version="1.4.2 (f4327f4, 2025-05-13)"
   xmlns:inkscape="http://www.inkscape.org/namespaces/inkscape"
   xmlns:sodipodi="http://sodipodi.sourceforge.net/DTD/sodipodi-0.dtd"
   xmlns="http://www.w3.org/2000/svg"
   xmlns:svg="http://www.w3.org/2000/svg"
   xmlns:shaper="http://www.shapertools.com/namespaces/shaper"><defs
     id="defs17" /><sodipodi:namedview
     id="namedview17"
     pagecolor="#ffffff"
     bordercolor="#000000"
     borderopacity="0.25"
     inkscape:showpageshadow="2"
     inkscape:pageopacity="0.0"
     inkscape:pagecheckerboard="0"
     inkscape:deskcolor="#d1d1d1"
     inkscape:document-units="cm"
     inkscape:zoom="1.4999662"
     inkscape:cx="304.00685"
     inkscape:cy="157.67022"
     inkscape:window-width="1920"
     inkscape:window-height="1009"
     inkscape:window-x="-8"
     inkscape:window-y="-8"
     inkscape:window-maximized="1"
     inkscape:current-layer="svg17" /><path
     d="M8.05,-5.17 L8.05,5.17 -8.05,5.17 -8.05,-5.17 8.05,-5.17z"
     transform="matrix(1,0,0,-1,8.05,5.17)"
     fill="rgb(0,0,0)"
     stroke-linecap="round"
     stroke-linejoin="round"
     id="path1"
     style="fill:none;stroke:#0000ff;stroke-opacity:1;vector-effect:non-scaling-stroke;-inkscape-stroke:hairline;stroke-width:0.02645833;stroke-dasharray:none" /><path
     d="M4.025,-1.85 a0.175,0.175 0 1,1 0.35,0 a0.175,0.175 0 1,1 -0.35,0z"
     transform="matrix(1,0,0,-1,8.05,5.17)"
     fill="rgb(255,255,255)"
     stroke="rgb(0,0,0)"
     stroke-width="0.0010cm"
     stroke-linecap="round"
     stroke-linejoin="round"
     id="path2"
     style="fill:none;stroke:#0000ff;stroke-opacity:1;vector-effect:non-scaling-stroke;-inkscape-stroke:hairline;stroke-width:0.02645833;stroke-dasharray:none" /><path
     d="M0.325,-1.85 a0.175,0.175 0 1,1 0.35,0 a0.175,0.175 0 1,1 -0.35,0z"
     transform="matrix(1,0,0,-1,8.05,5.17)"
     fill="rgb(255,255,255)"
     stroke="rgb(0,0,0)"
     stroke-width="0.0010cm"
     stroke-linecap="round"
     stroke-linejoin="round"
     id="path3"
     style="fill:none;stroke:#0000ff;stroke-opacity:1;vector-effect:non-scaling-stroke;-inkscape-stroke:hairline;stroke-width:0.02645833;stroke-dasharray:none" /><path
     d="M0.325,1.85 a0.175,0.175 0 1,1 0.35,0 a0.175,0.175 0 1,1 -0.35,0z"
     transform="matrix(1,0,0,-1,8.05,5.17)"
     fill="rgb(255,255,255)"
     stroke="rgb(0,0,0)"
     stroke-width="0.0010cm"
     stroke-linecap="round"
     stroke-linejoin="round"
     id="path4"
     style="fill:none;stroke:#0000ff;stroke-opacity:1;vector-effect:non-scaling-stroke;-inkscape-stroke:hairline;stroke-width:0.02645833;stroke-dasharray:none" /><path
     d="M-0.675,-1.85 a0.175,0.175 0 1,1 0.35,0 a0.175,0.175 0 1,1 -0.35,0z"
     transform="matrix(1,0,0,-1,8.05,5.17)"
     fill="rgb(255,255,255)"
     stroke="rgb(0,0,0)"
     stroke-width="0.0010cm"
     stroke-linecap="round"
     stroke-linejoin="round"
     id="path5"
     style="fill:none;stroke:#0000ff;stroke-opacity:1;vector-effect:non-scaling-stroke;-inkscape-stroke:hairline;stroke-width:0.02645833;stroke-dasharray:none" /><path
     d="M-4.375,-1.85 a0.175,0.175 0 1,1 0.35,0 a0.175,0.175 0 1,1 -0.35,0z"
     transform="matrix(1,0,0,-1,8.05,5.17)"
     fill="rgb(255,255,255)"
     stroke="rgb(0,0,0)"
     stroke-width="0.0010cm"
     stroke-linecap="round"
     stroke-linejoin="round"
     id="path6"
     style="fill:none;stroke:#0000ff;stroke-opacity:1;vector-effect:non-scaling-stroke;-inkscape-stroke:hairline;stroke-width:0.02645833;stroke-dasharray:none" /><path
     d="M-4.375,1.85 a0.175,0.175 0 1,1 0.35,0 a0.175,0.175 0 1,1 -0.35,0z"
     transform="matrix(1,0,0,-1,8.05,5.17)"
     fill="rgb(255,255,255)"
     stroke="rgb(0,0,0)"
     stroke-width="0.0010cm"
     stroke-linecap="round"
     stroke-linejoin="round"
     id="path7"
     style="fill:none;stroke:#0000ff;stroke-opacity:1;vector-effect:non-scaling-stroke;-inkscape-stroke:hairline;stroke-width:0.02645833;stroke-dasharray:none" /><path
     d="M-0.675,1.85 a0.175,0.175 0 1,1 0.35,0 a0.175,0.175 0 1,1 -0.35,0z"
     transform="matrix(1,0,0,-1,8.05,5.17)"
     fill="rgb(255,255,255)"
     stroke="rgb(0,0,0)"
     stroke-width="0.0010cm"
     stroke-linecap="round"
     stroke-linejoin="round"
     id="path8"
     style="fill:none;stroke:#0000ff;stroke-opacity:1;vector-effect:non-scaling-stroke;-inkscape-stroke:hairline;stroke-width:0.02645833;stroke-dasharray:none" /><path
     d="M-4.925,-1.65 a0.175,0.175 0 1,1 0.35,0 a0.175,0.175 0 1,1 -0.35,0z"
     transform="matrix(1,0,0,-1,8.05,5.17)"
     fill="rgb(255,255,255)"
     stroke="rgb(0,0,0)"
     stroke-width="0.0010cm"
     stroke-linecap="round"
     stroke-linejoin="round"
     id="path9"
     style="fill:none;stroke:#0000ff;stroke-opacity:1;vector-effect:non-scaling-stroke;-inkscape-stroke:hairline;stroke-width:0.02645833;stroke-dasharray:none" /><path
     d="M-3.95,2.75 L-5.95,2.75 -5.95,3.27 -4.47,3.27 -4.47,3.79 -3.95,3.79 -3.95,2.75z"
     transform="matrix(1,0,0,-1,8.05,5.17)"
     fill="rgb(255,255,255)"
     stroke="rgb(0,0,0)"
     stroke-width="0.0010cm"
     stroke-linecap="round"
     stroke-linejoin="round"
     id="path10"
     style="fill:none;stroke:#0000ff;stroke-opacity:1;vector-effect:non-scaling-stroke;-inkscape-stroke:hairline;stroke-width:0.02645833;stroke-dasharray:none" /><path
     d="M3.95,2.75 L3.95,3.79 4.47,3.79 4.47,3.27 5.95,3.27 5.95,2.75 3.95,2.75z"
     transform="matrix(1,0,0,-1,8.05,5.17)"
     fill="rgb(255,255,255)"
     stroke="rgb(0,0,0)"
     stroke-width="0.0010cm"
     stroke-linecap="round"
     stroke-linejoin="round"
     id="path11"
     style="fill:none;stroke:#0000ff;stroke-opacity:1;vector-effect:non-scaling-stroke;-inkscape-stroke:hairline;stroke-width:0.02645833;stroke-dasharray:none" /><path
     d="M4.025,1.85 a0.175,0.175 0 1,1 0.35,0 a0.175,0.175 0 1,1 -0.35,0z"
     transform="matrix(1,0,0,-1,8.05,5.17)"
     fill="rgb(255,255,255)"
     stroke="rgb(0,0,0)"
     stroke-width="0.0010cm"
     stroke-linecap="round"
     stroke-linejoin="round"
     id="path12"
     style="fill:none;stroke:#0000ff;stroke-opacity:1;vector-effect:non-scaling-stroke;-inkscape-stroke:hairline;stroke-width:0.02645833;stroke-dasharray:none" /><path
     d="M3.95,-3.79 L3.95,-2.75 5.95,-2.75 5.95,-3.27 4.47,-3.27 4.47,-3.79 3.95,-3.79z"
     transform="matrix(1,0,0,-1,8.05,5.17)"
     fill="rgb(255,255,255)"
     stroke="rgb(0,0,0)"
     stroke-width="0.0010cm"
     stroke-linecap="round"
     stroke-linejoin="round"
     id="path13"
     style="fill:none;stroke:#0000ff;stroke-opacity:1;vector-effect:non-scaling-stroke;-inkscape-stroke:hairline;stroke-width:0.02645833;stroke-dasharray:none" /><path
     d="M-4.925,1.65 a0.175,0.175 0 1,1 0.35,0 a0.175,0.175 0 1,1 -0.35,0z"
     transform="matrix(1,0,0,-1,8.05,5.17)"
     fill="rgb(255,255,255)"
     stroke="rgb(0,0,0)"
     stroke-width="0.0010cm"
     stroke-linecap="round"
     stroke-linejoin="round"
     id="path14"
     style="fill:none;stroke:#0000ff;stroke-opacity:1;vector-effect:non-scaling-stroke;-inkscape-stroke:hairline;stroke-width:0.02645833;stroke-dasharray:none" /><path
     d="M-5.95,-2.75 L-3.95,-2.75 -3.95,-3.79 -4.47,-3.79 -4.47,-3.27 -5.95,-3.27 -5.95,-2.75z"
     transform="matrix(1,0,0,-1,8.05,5.17)"
     fill="rgb(255,255,255)"
     stroke="rgb(0,0,0)"
     stroke-width="0.0010cm"
     stroke-linecap="round"
     stroke-linejoin="round"
     id="path15"
     style="fill:none;stroke:#0000ff;stroke-opacity:1;vector-effect:non-scaling-stroke;-inkscape-stroke:hairline;stroke-width:0.02645833;stroke-dasharray:none" /><path
     d="M4.575,1.65 a0.175,0.175 0 1,1 0.35,0 a0.175,0.175 0 1,1 -0.35,0z"
     transform="matrix(1,0,0,-1,8.05,5.17)"
     fill="rgb(255,255,255)"
     stroke="rgb(0,0,0)"
     stroke-width="0.0010cm"
     stroke-linecap="round"
     stroke-linejoin="round"
     id="path16"
     style="fill:none;stroke:#0000ff;stroke-opacity:1;vector-effect:non-scaling-stroke;-inkscape-stroke:hairline;stroke-width:0.02645833;stroke-dasharray:none" /><path
     d="M4.575,-1.65 a0.175,0.175 0 1,1 0.35,0 a0.175,0.175 0 1,1 -0.35,0z"
     transform="matrix(1,0,0,-1,8.05,5.17)"
     fill="rgb(255,255,255)"
     stroke="rgb(0,0,0)"
     stroke-width="0.0010cm"
     stroke-linecap="round"
     stroke-linejoin="round"
     id="path17"
     style="fill:none;stroke:#0000ff;stroke-opacity:1;vector-effect:non-scaling-stroke;-inkscape-stroke:hairline;stroke-width:0.02645833;stroke-dasharray:none" /></svg>
