<?xml version="1.0" encoding="UTF-8" standalone="no"?>
<!-- Generator: Fusion 360, Shaper Origin Export Add-In, Version 1.9.0  -->

<svg
   shaper:fusionaddin="version:1.9.0"
   width="16.1cm"
   height="2.745cm"
   version="1.1"
   x="0cm"
   y="0cm"
   viewBox="0 0 16.1 2.745"
   enable-background="new 0 0 16.1 2.745"
   xml:space="preserve"
   id="svg9"
   sodipodi:docname="Runner.svg"
   inkscape:version="1.4.2 (f4327f4, 2025-05-13)"
   xmlns:inkscape="http://www.inkscape.org/namespaces/inkscape"
   xmlns:sodipodi="http://sodipodi.sourceforge.net/DTD/sodipodi-0.dtd"
   xmlns="http://www.w3.org/2000/svg"
   xmlns:svg="http://www.w3.org/2000/svg"
   xmlns:shaper="http://www.shapertools.com/namespaces/shaper"><defs
     id="defs9" /><sodipodi:namedview
     id="namedview9"
     pagecolor="#ffffff"
     bordercolor="#000000"
     borderopacity="0.25"
     inkscape:showpageshadow="2"
     inkscape:pageopacity="0.0"
     inkscape:pagecheckerboard="0"
     inkscape:deskcolor="#d1d1d1"
     inkscape:document-units="cm"
     inkscape:zoom="1.0411891"
     inkscape:cx="213.21775"
     inkscape:cy="113.81218"
     inkscape:window-width="1920"
     inkscape:window-height="1009"
     inkscape:window-x="-8"
     inkscape:window-y="-8"
     inkscape:window-maximized="1"
     inkscape:current-layer="svg9" /><path
     d="M8.05,1.3725 L-8.05,1.3725 -8.05,-0.8525 -5.95,-0.8525 -5.95,-1.3725 -3.95,-1.3725 -3.95,-0.8525 3.95,-0.8525 3.95,-1.3725 5.95,-1.3725 5.95,-0.8525 8.05,-0.8525 8.05,1.3725z"
     transform="matrix(1,0,0,-1,8.05,1.3725)"
     fill="rgb(0,0,0)"
     stroke-linecap="round"
     stroke-linejoin="round"
     id="path1"
     style="fill:none;stroke:#0000ff;stroke-opacity:1;vector-effect:non-scaling-stroke;-inkscape-stroke:hairline;stroke-width:0.02645833;stroke-dasharray:none" /><path
     d="M4.8,-0.615 a0.15,0.15 0 1,1 0.3,0 a0.15,0.15 0 1,1 -0.3,0z"
     transform="matrix(1,0,0,-1,8.05,1.3725)"
     fill="rgb(255,255,255)"
     stroke="rgb(0,0,0)"
     stroke-width="0.0010cm"
     stroke-linecap="round"
     stroke-linejoin="round"
     id="path2"
     style="fill:none;stroke:#0000ff;stroke-opacity:1;vector-effect:non-scaling-stroke;-inkscape-stroke:hairline;stroke-width:0.02645833;stroke-dasharray:none" /><path
     d="M-7.25,0.26 a0.3,0.3 0 1,1 0.6,0 a0.3,0.3 0 1,1 -0.6,0z"
     transform="matrix(1,0,0,-1,8.05,1.3725)"
     fill="rgb(255,255,255)"
     stroke="rgb(0,0,0)"
     stroke-width="0.0010cm"
     stroke-linecap="round"
     stroke-linejoin="round"
     id="path3"
     style="fill:none;stroke:#0000ff;stroke-opacity:1;vector-effect:non-scaling-stroke;-inkscape-stroke:hairline;stroke-width:0.02645833;stroke-dasharray:none" /><path
     d="M6.65,0.26 a0.3,0.3 0 1,1 0.6,0 a0.3,0.3 0 1,1 -0.6,0z"
     transform="matrix(1,0,0,-1,8.05,1.3725)"
     fill="rgb(255,255,255)"
     stroke="rgb(0,0,0)"
     stroke-width="0.0010cm"
     stroke-linecap="round"
     stroke-linejoin="round"
     id="path4"
     style="fill:none;stroke:#0000ff;stroke-opacity:1;vector-effect:non-scaling-stroke;-inkscape-stroke:hairline;stroke-width:0.02645833;stroke-dasharray:none" /><path
     d="M4.8,1.135 a0.15,0.15 0 1,1 0.3,0 a0.15,0.15 0 1,1 -0.3,0z"
     transform="matrix(1,0,0,-1,8.05,1.3725)"
     fill="rgb(255,255,255)"
     stroke="rgb(0,0,0)"
     stroke-width="0.0010cm"
     stroke-linecap="round"
     stroke-linejoin="round"
     id="path5"
     style="fill:none;stroke:#0000ff;stroke-opacity:1;vector-effect:non-scaling-stroke;-inkscape-stroke:hairline;stroke-width:0.02645833;stroke-dasharray:none" /><path
     d="M5.55,0.26 a0.4,0.4 0 1,1 0.8,0 a0.4,0.4 0 1,1 -0.8,0z"
     transform="matrix(1,0,0,-1,8.05,1.3725)"
     fill="rgb(255,255,255)"
     stroke="rgb(0,0,0)"
     stroke-width="0.0010cm"
     stroke-linecap="round"
     stroke-linejoin="round"
     id="path6"
     style="fill:none;stroke:#0000ff;stroke-opacity:1;vector-effect:non-scaling-stroke;-inkscape-stroke:hairline;stroke-width:0.02645833;stroke-dasharray:none" /><path
     d="M-5.1,1.135 a0.15,0.15 0 1,1 0.3,0 a0.15,0.15 0 1,1 -0.3,0z"
     transform="matrix(1,0,0,-1,8.05,1.3725)"
     fill="rgb(255,255,255)"
     stroke="rgb(0,0,0)"
     stroke-width="0.0010cm"
     stroke-linecap="round"
     stroke-linejoin="round"
     id="path7"
     style="fill:none;stroke:#0000ff;stroke-opacity:1;vector-effect:non-scaling-stroke;-inkscape-stroke:hairline;stroke-width:0.02645833;stroke-dasharray:none" /><path
     d="M-6.35,0.26 a0.4,0.4 0 1,1 0.8,0 a0.4,0.4 0 1,1 -0.8,0z"
     transform="matrix(1,0,0,-1,8.05,1.3725)"
     fill="rgb(255,255,255)"
     stroke="rgb(0,0,0)"
     stroke-width="0.0010cm"
     stroke-linecap="round"
     stroke-linejoin="round"
     id="path8"
     style="fill:none;stroke:#0000ff;stroke-opacity:1;vector-effect:non-scaling-stroke;-inkscape-stroke:hairline;stroke-width:0.02645833;stroke-dasharray:none" /><path
     d="M-5.1,-0.615 a0.15,0.15 0 1,1 0.3,0 a0.15,0.15 0 1,1 -0.3,0z"
     transform="matrix(1,0,0,-1,8.05,1.3725)"
     fill="rgb(255,255,255)"
     stroke="rgb(0,0,0)"
     stroke-width="0.0010cm"
     stroke-linecap="round"
     stroke-linejoin="round"
     id="path9"
     style="fill:none;stroke:#0000ff;stroke-opacity:1;vector-effect:non-scaling-stroke;-inkscape-stroke:hairline;stroke-width:0.02645833;stroke-dasharray:none" /></svg>
