<?xml version="1.0" encoding="UTF-8" standalone="no"?>
<!-- Generator: Fusion 360, Shaper Origin Export Add-In, Version 1.9.0  -->

<svg
   shaper:fusionaddin="version:1.9.0"
   width="22.08cm"
   height="19.73cm"
   version="1.1"
   x="0cm"
   y="0cm"
   viewBox="0 0 22.08 19.73"
   enable-background="new 0 0 22.08 19.73"
   xml:space="preserve"
   id="svg27"
   sodipodi:docname="Bottom Plate.svg"
   inkscape:version="1.4.2 (f4327f4, 2025-05-13)"
   xmlns:inkscape="http://www.inkscape.org/namespaces/inkscape"
   xmlns:sodipodi="http://sodipodi.sourceforge.net/DTD/sodipodi-0.dtd"
   xmlns="http://www.w3.org/2000/svg"
   xmlns:svg="http://www.w3.org/2000/svg"
   xmlns:shaper="http://www.shapertools.com/namespaces/shaper"><defs
     id="defs27" /><sodipodi:namedview
     id="namedview27"
     pagecolor="#ffffff"
     bordercolor="#000000"
     borderopacity="0.25"
     inkscape:showpageshadow="2"
     inkscape:pageopacity="0.0"
     inkscape:pagecheckerboard="0"
     inkscape:deskcolor="#d1d1d1"
     inkscape:document-units="cm"
     inkscape:zoom="1.111706"
     inkscape:cx="416.92679"
     inkscape:cy="372.85039"
     inkscape:window-width="1920"
     inkscape:window-height="1009"
     inkscape:window-x="-8"
     inkscape:window-y="-8"
     inkscape:window-maximized="1"
     inkscape:current-layer="svg27" /><path
     d="M-7.78,9.605 L-7.78,9.345 -9.78,9.345 -9.78,9.605 -7.78,9.605z"
     transform="matrix(1,0,0,-1,11.04,9.865)"
     fill="rgb(255,255,255)"
     stroke="rgb(0,0,0)"
     stroke-width="0.0010cm"
     stroke-linecap="round"
     stroke-linejoin="round"
     id="path2"
     style="fill:none;stroke:#0000ff;stroke-opacity:1;stroke-width:0.02;stroke-dasharray:none" /><path
     d="M-10.3,8.845 L-3.7,8.845 A0.2,0.2 90 0,0 -3.5,8.645 L-3.5,5.545 A0.2,0.2 0 0,0 -3.7,5.345 L-10.3,5.345 A0.2,0.2 270 0,0 -10.5,5.545 L-10.5,8.645 A0.2,0.2 180 0,0 -10.3,8.845z"
     transform="matrix(1,0,0,-1,11.04,9.865)"
     fill="rgb(255,255,255)"
     stroke="rgb(0,0,0)"
     stroke-width="0.0010cm"
     stroke-linecap="round"
     stroke-linejoin="round"
     id="path3"
     style="fill:none;stroke:#0000ff;stroke-opacity:1;stroke-width:0.02;stroke-dasharray:none" /><path
     d="M9.78,-5.105 L7.78,-5.105 7.78,-4.845 9.78,-4.845 9.78,-5.105z"
     transform="matrix(1,0,0,-1,11.04,9.865)"
     fill="rgb(255,255,255)"
     stroke="rgb(0,0,0)"
     stroke-width="0.0010cm"
     stroke-linecap="round"
     stroke-linejoin="round"
     id="path4"
     style="fill:none;stroke:#0000ff;stroke-opacity:1;stroke-width:0.02;stroke-dasharray:none" /><path
     d="M1,-2.945 L-1,-2.945 -1,-2.685 1,-2.685 1,-2.945z"
     transform="matrix(1,0,0,-1,11.04,9.865)"
     fill="rgb(255,255,255)"
     stroke="rgb(0,0,0)"
     stroke-width="0.0010cm"
     stroke-linecap="round"
     stroke-linejoin="round"
     id="path5"
     style="fill:none;stroke:#0000ff;stroke-opacity:1;stroke-width:0.02;stroke-dasharray:none" /><path
     d="M9.555,-2 a0.225,0.225 0 1,1 0.45,0 a0.225,0.225 0 1,1 -0.45,0z"
     transform="matrix(1,0,0,-1,11.04,9.865)"
     fill="rgb(255,255,255)"
     stroke="rgb(0,0,0)"
     stroke-width="0.0010cm"
     stroke-linecap="round"
     stroke-linejoin="round"
     id="path6"
     style="fill:none;stroke:#0000ff;stroke-opacity:1;stroke-width:0.02;stroke-dasharray:none" /><path
     d="M7.78,-2.945 L7.78,-2.685 9.78,-2.685 9.78,-2.945 7.78,-2.945z"
     transform="matrix(1,0,0,-1,11.04,9.865)"
     fill="rgb(255,255,255)"
     stroke="rgb(0,0,0)"
     stroke-width="0.0010cm"
     stroke-linecap="round"
     stroke-linejoin="round"
     id="path7"
     style="fill:none;stroke:#0000ff;stroke-opacity:1;stroke-width:0.02;stroke-dasharray:none" /><path
     d="M-1,-9.345 L1,-9.345 1,-9.605 -1,-9.605 -1,-9.345z"
     transform="matrix(1,0,0,-1,11.04,9.865)"
     fill="rgb(255,255,255)"
     stroke="rgb(0,0,0)"
     stroke-width="0.0010cm"
     stroke-linecap="round"
     stroke-linejoin="round"
     id="path8"
     style="fill:none;stroke:#0000ff;stroke-opacity:1;stroke-width:0.02;stroke-dasharray:none" /><path
     d="M1,9.605 L1,9.345 -1,9.345 -1,9.605 1,9.605z"
     transform="matrix(1,0,0,-1,11.04,9.865)"
     fill="rgb(255,255,255)"
     stroke="rgb(0,0,0)"
     stroke-width="0.0010cm"
     stroke-linecap="round"
     stroke-linejoin="round"
     id="path9"
     style="fill:none;stroke:#0000ff;stroke-opacity:1;stroke-width:0.02;stroke-dasharray:none" /><path
     d="M10.3,5.345 L3.7,5.345 A0.2,0.2 270 0,0 3.5,5.545 L3.5,8.645 A0.2,0.2 180 0,0 3.7,8.845 L10.3,8.845 A0.2,0.2 90 0,0 10.5,8.645 L10.5,5.545 A0.2,0.2 0 0,0 10.3,5.345z"
     transform="matrix(1,0,0,-1,11.04,9.865)"
     fill="rgb(255,255,255)"
     stroke="rgb(0,0,0)"
     stroke-width="0.0010cm"
     stroke-linecap="round"
     stroke-linejoin="round"
     id="path10"
     style="fill:none;stroke:#0000ff;stroke-opacity:1;stroke-width:0.02;stroke-dasharray:none" /><path
     d="M-7.78,-9.345 L-7.78,-9.605 -9.78,-9.605 -9.78,-9.345 -7.78,-9.345z"
     transform="matrix(1,0,0,-1,11.04,9.865)"
     fill="rgb(255,255,255)"
     stroke="rgb(0,0,0)"
     stroke-width="0.0010cm"
     stroke-linecap="round"
     stroke-linejoin="round"
     id="path11"
     style="fill:none;stroke:#0000ff;stroke-opacity:1;stroke-width:0.02;stroke-dasharray:none" /><path
     d="M9.78,-9.345 L9.78,-9.605 7.78,-9.605 7.78,-9.345 9.78,-9.345z"
     transform="matrix(1,0,0,-1,11.04,9.865)"
     fill="rgb(255,255,255)"
     stroke="rgb(0,0,0)"
     stroke-width="0.0010cm"
     stroke-linecap="round"
     stroke-linejoin="round"
     id="path12"
     style="fill:none;stroke:#0000ff;stroke-opacity:1;stroke-width:0.02;stroke-dasharray:none" /><path
     d="M-7.78,-2.685 L-7.78,-2.945 -9.78,-2.945 -9.78,-2.685 -7.78,-2.685z"
     transform="matrix(1,0,0,-1,11.04,9.865)"
     fill="rgb(255,255,255)"
     stroke="rgb(0,0,0)"
     stroke-width="0.0010cm"
     stroke-linecap="round"
     stroke-linejoin="round"
     id="path13"
     style="fill:none;stroke:#0000ff;stroke-opacity:1;stroke-width:0.02;stroke-dasharray:none" /><path
     d="M-7.78,5.105 L-7.78,4.845 -9.78,4.845 -9.78,5.105 -7.78,5.105z"
     transform="matrix(1,0,0,-1,11.04,9.865)"
     fill="rgb(255,255,255)"
     stroke="rgb(0,0,0)"
     stroke-width="0.0010cm"
     stroke-linecap="round"
     stroke-linejoin="round"
     id="path14"
     style="fill:none;stroke:#0000ff;stroke-opacity:1;stroke-width:0.02;stroke-dasharray:none" /><path
     d="M4.755,2 a0.225,0.225 0 1,1 0.45,0 a0.225,0.225 0 1,1 -0.45,0z"
     transform="matrix(1,0,0,-1,11.04,9.865)"
     fill="rgb(255,255,255)"
     stroke="rgb(0,0,0)"
     stroke-width="0.0010cm"
     stroke-linecap="round"
     stroke-linejoin="round"
     id="path15"
     style="fill:none;stroke:#0000ff;stroke-opacity:1;stroke-width:0.02;stroke-dasharray:none" /><path
     d="M9.78,9.605 L9.78,9.345 7.78,9.345 7.78,9.605 9.78,9.605z"
     transform="matrix(1,0,0,-1,11.04,9.865)"
     fill="rgb(255,255,255)"
     stroke="rgb(0,0,0)"
     stroke-width="0.0010cm"
     stroke-linecap="round"
     stroke-linejoin="round"
     id="path16"
     style="fill:none;stroke:#0000ff;stroke-opacity:1;stroke-width:0.02;stroke-dasharray:none" /><path
     d="M9.555,2 a0.225,0.225 0 1,1 0.45,0 a0.225,0.225 0 1,1 -0.45,0z"
     transform="matrix(1,0,0,-1,11.04,9.865)"
     fill="rgb(255,255,255)"
     stroke="rgb(0,0,0)"
     stroke-width="0.0010cm"
     stroke-linecap="round"
     stroke-linejoin="round"
     id="path17"
     style="fill:none;stroke:#0000ff;stroke-opacity:1;stroke-width:0.02;stroke-dasharray:none" /><path
     d="M7.78,4.845 L7.78,5.105 9.78,5.105 9.78,4.845 7.78,4.845z"
     transform="matrix(1,0,0,-1,11.04,9.865)"
     fill="rgb(255,255,255)"
     stroke="rgb(0,0,0)"
     stroke-width="0.0010cm"
     stroke-linecap="round"
     stroke-linejoin="round"
     id="path18"
     style="fill:none;stroke:#0000ff;stroke-opacity:1;stroke-width:0.02;stroke-dasharray:none" /><path
     d="M-7.78,2.685 L-9.78,2.685 -9.78,2.945 -7.78,2.945 -7.78,2.685z"
     transform="matrix(1,0,0,-1,11.04,9.865)"
     fill="rgb(255,255,255)"
     stroke="rgb(0,0,0)"
     stroke-width="0.0010cm"
     stroke-linecap="round"
     stroke-linejoin="round"
     id="path19"
     style="fill:none;stroke:#0000ff;stroke-opacity:1;stroke-width:0.02;stroke-dasharray:none" /><path
     d="M-9.78,-4.845 L-7.78,-4.845 -7.78,-5.105 -9.78,-5.105 -9.78,-4.845z"
     transform="matrix(1,0,0,-1,11.04,9.865)"
     fill="rgb(255,255,255)"
     stroke="rgb(0,0,0)"
     stroke-width="0.0010cm"
     stroke-linecap="round"
     stroke-linejoin="round"
     id="path20"
     style="fill:none;stroke:#0000ff;stroke-opacity:1;stroke-width:0.02;stroke-dasharray:none" /><path
     d="M4.755,-2 a0.225,0.225 0 1,1 0.45,0 a0.225,0.225 0 1,1 -0.45,0z"
     transform="matrix(1,0,0,-1,11.04,9.865)"
     fill="rgb(255,255,255)"
     stroke="rgb(0,0,0)"
     stroke-width="0.0010cm"
     stroke-linecap="round"
     stroke-linejoin="round"
     id="path21"
     style="fill:none;stroke:#0000ff;stroke-opacity:1;stroke-width:0.02;stroke-dasharray:none" /><path
     d="M1,2.945 L1,2.685 -1,2.685 -1,2.945 1,2.945z"
     transform="matrix(1,0,0,-1,11.04,9.865)"
     fill="rgb(255,255,255)"
     stroke="rgb(0,0,0)"
     stroke-width="0.0010cm"
     stroke-linecap="round"
     stroke-linejoin="round"
     id="path22"
     style="fill:none;stroke:#0000ff;stroke-opacity:1;stroke-width:0.02;stroke-dasharray:none" /><path
     d="M1,-4.845 L1,-5.105 -1,-5.105 -1,-4.845 1,-4.845z"
     transform="matrix(1,0,0,-1,11.04,9.865)"
     fill="rgb(255,255,255)"
     stroke="rgb(0,0,0)"
     stroke-width="0.0010cm"
     stroke-linecap="round"
     stroke-linejoin="round"
     id="path23"
     style="fill:none;stroke:#0000ff;stroke-opacity:1;stroke-width:0.02;stroke-dasharray:none" /><path
     d="M9.78,2.685 L7.78,2.685 7.78,2.945 9.78,2.945 9.78,2.685z"
     transform="matrix(1,0,0,-1,11.04,9.865)"
     fill="rgb(255,255,255)"
     stroke="rgb(0,0,0)"
     stroke-width="0.0010cm"
     stroke-linecap="round"
     stroke-linejoin="round"
     id="path24"
     style="fill:none;stroke:#0000ff;stroke-opacity:1;stroke-width:0.02;stroke-dasharray:none" /><path
     d="M-3.5,-5.545 L-3.5,-8.645 A0.2,0.2 0 0,0 -3.7,-8.845 L-10.3,-8.845 A0.2,0.2 270 0,0 -10.5,-8.645 L-10.5,-5.545 A0.2,0.2 180 0,0 -10.3,-5.345 L-3.7,-5.345 A0.2,0.2 90 0,0 -3.5,-5.545z"
     transform="matrix(1,0,0,-1,11.04,9.865)"
     fill="rgb(255,255,255)"
     stroke="rgb(0,0,0)"
     stroke-width="0.0010cm"
     stroke-linecap="round"
     stroke-linejoin="round"
     id="path25"
     style="fill:none;stroke:#0000ff;stroke-opacity:1;stroke-width:0.02;stroke-dasharray:none" /><path
     d="M10.3,-8.845 L3.7,-8.845 A0.2,0.2 270 0,0 3.5,-8.645 L3.5,-5.545 A0.2,0.2 180 0,0 3.7,-5.345 L10.3,-5.345 A0.2,0.2 90 0,0 10.5,-5.545 L10.5,-8.645 A0.2,0.2 0 0,0 10.3,-8.845z"
     transform="matrix(1,0,0,-1,11.04,9.865)"
     fill="rgb(255,255,255)"
     stroke="rgb(0,0,0)"
     stroke-width="0.0010cm"
     stroke-linecap="round"
     stroke-linejoin="round"
     id="path26"
     style="fill:none;stroke:#0000ff;stroke-opacity:1;stroke-width:0.02;stroke-dasharray:none" /><path
     d="M1,5.105 L1,4.845 -1,4.845 -1,5.105 1,5.105z"
     transform="matrix(1,0,0,-1,11.04,9.865)"
     fill="rgb(255,255,255)"
     stroke="rgb(0,0,0)"
     stroke-width="0.0010cm"
     stroke-linecap="round"
     stroke-linejoin="round"
     id="path27"
     style="fill:none;stroke:#0000ff;stroke-opacity:1;stroke-width:0.02;stroke-dasharray:none" /><path
     d="M11.04,1 L10.78,1 10.78,7.085136 11.04,7.085 11.04,9.085 10.78,9.085 10.78,9.865 -10.78,9.865 -10.78,9.085 -11.04,9.085 -11.04,7.085 -10.78,7.085136 -10.78,1 -11.04,1 -11.04,-1 -10.78,-1 -10.78,-7.085136 -11.04,-7.085 -11.04,-9.085 -10.78,-9.085 -10.78,-9.865 10.78,-9.865 10.78,-9.085 11.04,-9.085 11.04,-7.085 10.78,-7.085136 10.78,-1 11.04,-1 11.04,1z"
     transform="matrix(1,0,0,-1,11.04,9.8649999)"
     fill="rgb(0,0,0)"
     stroke-linecap="round"
     stroke-linejoin="round"
     id="path1"
     style="fill:none;stroke:#0000ff;stroke-opacity:1;stroke-width:0.02;stroke-dasharray:none" /></svg>
