<?xml version="1.0" encoding="UTF-8" standalone="no"?>
<!-- Generator: Fusion 360, Shaper Origin Export Add-In, Version 1.9.0  -->

<svg
   shaper:fusionaddin="version:1.9.0"
   width="19.73cm"
   height="4.04cm"
   version="1.1"
   x="0cm"
   y="0cm"
   viewBox="0 0 19.73 4.04"
   enable-background="new 0 0 19.73 4.04"
   xml:space="preserve"
   id="svg14"
   sodipodi:docname="Front Plate.svg"
   inkscape:version="1.4.2 (f4327f4, 2025-05-13)"
   xmlns:inkscape="http://www.inkscape.org/namespaces/inkscape"
   xmlns:sodipodi="http://sodipodi.sourceforge.net/DTD/sodipodi-0.dtd"
   xmlns="http://www.w3.org/2000/svg"
   xmlns:svg="http://www.w3.org/2000/svg"
   xmlns:shaper="http://www.shapertools.com/namespaces/shaper"><defs
     id="defs14" /><sodipodi:namedview
     id="namedview14"
     pagecolor="#ffffff"
     bordercolor="#000000"
     borderopacity="0.25"
     inkscape:showpageshadow="2"
     inkscape:pageopacity="0.0"
     inkscape:pagecheckerboard="0"
     inkscape:deskcolor="#d1d1d1"
     inkscape:document-units="cm"
     inkscape:zoom="2.4031087"
     inkscape:cx="373.05845"
     inkscape:cy="76.359426"
     inkscape:window-width="1920"
     inkscape:window-height="1009"
     inkscape:window-x="1912"
     inkscape:window-y="-8"
     inkscape:window-maximized="1"
     inkscape:current-layer="svg14" /><path
     d="M-1,-0.86 L-1,-0.6 1,-0.6 1,-0.86 -1,-0.86z"
     transform="matrix(1,0,0,-1,9.865,2.92)"
     fill="rgb(255,255,255)"
     stroke="rgb(0,0,0)"
     stroke-width="0.0010cm"
     stroke-linecap="round"
     stroke-linejoin="round"
     id="path2"
     style="fill:none;stroke:#0000ff;stroke-opacity:1;stroke-width:0.02;stroke-dasharray:none" /><path
     d="M-4.845,-0.1 L-5.105,-0.1 -5.105,1.9 -4.845,1.9 -4.845,-0.1z"
     transform="matrix(1,0,0,-1,9.865,2.92)"
     fill="rgb(255,255,255)"
     stroke="rgb(0,0,0)"
     stroke-width="0.0010cm"
     stroke-linecap="round"
     stroke-linejoin="round"
     id="path3"
     style="fill:none;stroke:#0000ff;stroke-opacity:1;stroke-width:0.02;stroke-dasharray:none" /><path
     d="M9.605,-0.1 L9.345,-0.1 9.345,1.9 9.605,1.9 9.605,-0.1z"
     transform="matrix(1,0,0,-1,9.865,2.92)"
     fill="rgb(255,255,255)"
     stroke="rgb(0,0,0)"
     stroke-width="0.0010cm"
     stroke-linecap="round"
     stroke-linejoin="round"
     id="path4"
     style="fill:none;stroke:#0000ff;stroke-opacity:1;stroke-width:0.02;stroke-dasharray:none" /><path
     d="M5.105,-0.1 L4.845,-0.1 4.845,1.9 5.105,1.9 5.105,-0.1z"
     transform="matrix(1,0,0,-1,9.865,2.92)"
     fill="rgb(255,255,255)"
     stroke="rgb(0,0,0)"
     stroke-width="0.0010cm"
     stroke-linecap="round"
     stroke-linejoin="round"
     id="path5"
     style="fill:none;stroke:#0000ff;stroke-opacity:1;stroke-width:0.02;stroke-dasharray:none" /><path
     d="M-1,2.4 L-1,2.66 1,2.66 1,2.4 -1,2.4z"
     transform="matrix(1,0,0,-1,9.865,2.92)"
     fill="rgb(255,255,255)"
     stroke="rgb(0,0,0)"
     stroke-width="0.0010cm"
     stroke-linecap="round"
     stroke-linejoin="round"
     id="path6"
     style="fill:none;stroke:#0000ff;stroke-opacity:1;stroke-width:0.02;stroke-dasharray:none" /><path
     d="M7.085,2.4 L7.085,2.66 9.085,2.66 9.085,2.4 7.085,2.4z"
     transform="matrix(1,0,0,-1,9.865,2.92)"
     fill="rgb(255,255,255)"
     stroke="rgb(0,0,0)"
     stroke-width="0.0010cm"
     stroke-linecap="round"
     stroke-linejoin="round"
     id="path7"
     style="fill:none;stroke:#0000ff;stroke-opacity:1;stroke-width:0.02;stroke-dasharray:none" /><path
     d="M-9.085,2.66 L-7.085,2.66 -7.085,2.4 -9.085,2.4 -9.085,2.66z"
     transform="matrix(1,0,0,-1,9.865,2.92)"
     fill="rgb(255,255,255)"
     stroke="rgb(0,0,0)"
     stroke-width="0.0010cm"
     stroke-linecap="round"
     stroke-linejoin="round"
     id="path8"
     style="fill:none;stroke:#0000ff;stroke-opacity:1;stroke-width:0.02;stroke-dasharray:none" /><path
     d="M2.945,-0.1 L2.685,-0.1 2.685,1.9 2.945,1.9 2.945,-0.1z"
     transform="matrix(1,0,0,-1,9.865,2.92)"
     fill="rgb(255,255,255)"
     stroke="rgb(0,0,0)"
     stroke-width="0.0010cm"
     stroke-linecap="round"
     stroke-linejoin="round"
     id="path9"
     style="fill:none;stroke:#0000ff;stroke-opacity:1;stroke-width:0.02;stroke-dasharray:none" /><path
     d="M-9.345,-0.1 L-9.605,-0.1 -9.605,1.9 -9.345,1.9 -9.345,-0.1z"
     transform="matrix(1,0,0,-1,9.865,2.92)"
     fill="rgb(255,255,255)"
     stroke="rgb(0,0,0)"
     stroke-width="0.0010cm"
     stroke-linecap="round"
     stroke-linejoin="round"
     id="path10"
     style="fill:none;stroke:#0000ff;stroke-opacity:1;stroke-width:0.02;stroke-dasharray:none" /><path
     d="M7.085,-0.86 L7.085,-0.6 9.085,-0.6 9.085,-0.86 7.085,-0.86z"
     transform="matrix(1,0,0,-1,9.865,2.92)"
     fill="rgb(255,255,255)"
     stroke="rgb(0,0,0)"
     stroke-width="0.0010cm"
     stroke-linecap="round"
     stroke-linejoin="round"
     id="path11"
     style="fill:none;stroke:#0000ff;stroke-opacity:1;stroke-width:0.02;stroke-dasharray:none" /><path
     d="M-2.685,-0.1 L-2.945,-0.1 -2.945,1.9 -2.685,1.9 -2.685,-0.1z"
     transform="matrix(1,0,0,-1,9.865,2.92)"
     fill="rgb(255,255,255)"
     stroke="rgb(0,0,0)"
     stroke-width="0.0010cm"
     stroke-linecap="round"
     stroke-linejoin="round"
     id="path12"
     style="fill:none;stroke:#0000ff;stroke-opacity:1;stroke-width:0.02;stroke-dasharray:none" /><path
     d="M-7.085,-0.6 L-7.085,-0.86 -9.085,-0.86 -9.085,-0.6 -7.085,-0.6z"
     transform="matrix(1,0,0,-1,9.865,2.92)"
     fill="rgb(255,255,255)"
     stroke="rgb(0,0,0)"
     stroke-width="0.0010cm"
     stroke-linecap="round"
     stroke-linejoin="round"
     id="path13"
     style="fill:none;stroke:#0000ff;stroke-opacity:1;stroke-width:0.02;stroke-dasharray:none" /><path
     d="M0.5,0.6 L-0.5,0.6 A0.2,0.2 270 0,0 -0.7,0.8 L-0.7,1.2 A0.2,0.2 180 0,0 -0.5,1.4 L0.5,1.4 A0.2,0.2 90 0,0 0.7,1.2 L0.7,0.8 A0.2,0.2 0 0,0 0.5,0.6z"
     transform="matrix(1,0,0,-1,9.865,2.92)"
     fill="rgb(255,255,255)"
     stroke="rgb(0,0,0)"
     stroke-width="0.0010cm"
     stroke-linecap="round"
     stroke-linejoin="round"
     id="path14"
     style="fill:none;stroke:#0000ff;stroke-opacity:1;stroke-width:0.02;stroke-dasharray:none" /><path
     d="M-9.865,2.92 L-9.865,-1.12 9.865,-1.12 9.865,2.92 -9.865,2.92z"
     transform="matrix(1,0,0,-1,9.8649999,2.9199999)"
     fill="rgb(0,0,0)"
     stroke-linecap="round"
     stroke-linejoin="round"
     id="path1"
     style="fill:none;stroke:#0000ff;stroke-opacity:1;stroke-width:0.02;stroke-dasharray:none" /></svg>
