<?xml version="1.0" encoding="UTF-8" standalone="no"?>
<!-- Generator: Fusion 360, Shaper Origin Export Add-In, Version 1.9.0  -->

<svg
   shaper:fusionaddin="version:1.9.0"
   width="22.08cm"
   height="3.52cm"
   version="1.1"
   x="0cm"
   y="0cm"
   viewBox="0 0 22.08 3.52"
   enable-background="new 0 0 22.08 3.52"
   xml:space="preserve"
   id="svg11"
   sodipodi:docname="Side Plate Inner.svg"
   inkscape:version="1.4.2 (f4327f4, 2025-05-13)"
   xmlns:inkscape="http://www.inkscape.org/namespaces/inkscape"
   xmlns:sodipodi="http://sodipodi.sourceforge.net/DTD/sodipodi-0.dtd"
   xmlns="http://www.w3.org/2000/svg"
   xmlns:svg="http://www.w3.org/2000/svg"
   xmlns:shaper="http://www.shapertools.com/namespaces/shaper"><defs
     id="defs11" /><sodipodi:namedview
     id="namedview11"
     pagecolor="#ffffff"
     bordercolor="#000000"
     borderopacity="0.25"
     inkscape:showpageshadow="2"
     inkscape:pageopacity="0.0"
     inkscape:pagecheckerboard="0"
     inkscape:deskcolor="#d1d1d1"
     inkscape:document-units="cm"
     inkscape:zoom="2.147343"
     inkscape:cx="417.027"
     inkscape:cy="66.36108"
     inkscape:window-width="1920"
     inkscape:window-height="1009"
     inkscape:window-x="-8"
     inkscape:window-y="-8"
     inkscape:window-maximized="1"
     inkscape:current-layer="svg11" /><path
     d="M1.75,1.1 L4.25,1.1 A0.2,0.2 90 0,0 4.45,0.9 L4.45,-0.9 A0.2,0.2 0 0,0 4.25,-1.1 L1.75,-1.1 A0.2,0.2 270 0,0 1.55,-0.9 L1.55,0.9 A0.2,0.2 180 0,0 1.75,1.1z"
     transform="matrix(1,0,0,-1,11.04,1.76)"
     fill="rgb(255,255,255)"
     stroke="rgb(0,0,0)"
     stroke-width="0.0010cm"
     stroke-linecap="round"
     stroke-linejoin="round"
     id="path2"
     style="fill:none;stroke:#0000ff;stroke-opacity:1;stroke-width:0.02;stroke-dasharray:none" /><path
     d="M4.825,-0.875 a0.175,0.175 0 1,1 0.35,0 a0.175,0.175 0 1,1 -0.35,0z"
     transform="matrix(1,0,0,-1,11.04,1.76)"
     fill="rgb(255,255,255)"
     stroke="rgb(0,0,0)"
     stroke-width="0.0010cm"
     stroke-linecap="round"
     stroke-linejoin="round"
     id="path3"
     style="fill:none;stroke:#0000ff;stroke-opacity:1;stroke-width:0.02;stroke-dasharray:none" /><path
     d="M4.825,0.875 a0.175,0.175 0 1,1 0.35,0 a0.175,0.175 0 1,1 -0.35,0z"
     transform="matrix(1,0,0,-1,11.04,1.76)"
     fill="rgb(255,255,255)"
     stroke="rgb(0,0,0)"
     stroke-width="0.0010cm"
     stroke-linecap="round"
     stroke-linejoin="round"
     id="path4"
     style="fill:none;stroke:#0000ff;stroke-opacity:1;stroke-width:0.02;stroke-dasharray:none" /><path
     d="M5.65,0 a0.25,0.25 0 1,1 0.5,0 a0.25,0.25 0 1,1 -0.5,0z"
     transform="matrix(1,0,0,-1,11.04,1.76)"
     fill="rgb(255,255,255)"
     stroke="rgb(0,0,0)"
     stroke-width="0.0010cm"
     stroke-linecap="round"
     stroke-linejoin="round"
     id="path5"
     style="fill:none;stroke:#0000ff;stroke-opacity:1;stroke-width:0.02;stroke-dasharray:none" /><path
     d="M6.625,0 a0.375,0.375 0 1,1 0.75,0 a0.375,0.375 0 1,1 -0.75,0z"
     transform="matrix(1,0,0,-1,11.04,1.76)"
     fill="rgb(255,255,255)"
     stroke="rgb(0,0,0)"
     stroke-width="0.0010cm"
     stroke-linecap="round"
     stroke-linejoin="round"
     id="path6"
     style="fill:none;stroke:#0000ff;stroke-opacity:1;stroke-width:0.02;stroke-dasharray:none" /><path
     d="M-7.375,-0 a0.375,0.375 0 1,1 0.75,0 a0.375,0.375 0 1,1 -0.75,0z"
     transform="matrix(1,0,0,-1,11.04,1.76)"
     fill="rgb(255,255,255)"
     stroke="rgb(0,0,0)"
     stroke-width="0.0010cm"
     stroke-linecap="round"
     stroke-linejoin="round"
     id="path7"
     style="fill:none;stroke:#0000ff;stroke-opacity:1;stroke-width:0.02;stroke-dasharray:none" /><path
     d="M-6.15,-0 a0.25,0.25 0 1,1 0.5,0 a0.25,0.25 0 1,1 -0.5,0z"
     transform="matrix(1,0,0,-1,11.04,1.76)"
     fill="rgb(255,255,255)"
     stroke="rgb(0,0,0)"
     stroke-width="0.0010cm"
     stroke-linecap="round"
     stroke-linejoin="round"
     id="path8"
     style="fill:none;stroke:#0000ff;stroke-opacity:1;stroke-width:0.02;stroke-dasharray:none" /><path
     d="M-5.175,-0.875 a0.175,0.175 0 1,1 0.35,0 a0.175,0.175 0 1,1 -0.35,0z"
     transform="matrix(1,0,0,-1,11.04,1.76)"
     fill="rgb(255,255,255)"
     stroke="rgb(0,0,0)"
     stroke-width="0.0010cm"
     stroke-linecap="round"
     stroke-linejoin="round"
     id="path9"
     style="fill:none;stroke:#0000ff;stroke-opacity:1;stroke-width:0.02;stroke-dasharray:none" /><path
     d="M-5.175,0.875 a0.175,0.175 0 1,1 0.35,0 a0.175,0.175 0 1,1 -0.35,0z"
     transform="matrix(1,0,0,-1,11.04,1.76)"
     fill="rgb(255,255,255)"
     stroke="rgb(0,0,0)"
     stroke-width="0.0010cm"
     stroke-linecap="round"
     stroke-linejoin="round"
     id="path10"
     style="fill:none;stroke:#0000ff;stroke-opacity:1;stroke-width:0.02;stroke-dasharray:none" /><path
     d="M-4.45,0.9 A0.2,0.2 180 0,0 -4.25,1.1 L-1.75,1.1 A0.2,0.2 90 0,0 -1.55,0.9 L-1.55,-0.9 A0.2,0.2 0 0,0 -1.75,-1.1 L-4.25,-1.1 A0.2,0.2 270 0,0 -4.45,-0.9 L-4.45,0.9z"
     transform="matrix(1,0,0,-1,11.04,1.76)"
     fill="rgb(255,255,255)"
     stroke="rgb(0,0,0)"
     stroke-width="0.0010cm"
     stroke-linecap="round"
     stroke-linejoin="round"
     id="path11"
     style="fill:none;stroke:#0000ff;stroke-opacity:1;stroke-width:0.02;stroke-dasharray:none" /><path
     d="M7.78,1.5 L1,1.5 1,1.76 -1,1.76 -1,1.5 -7.78,1.5 -7.78,1.76 -9.78,1.76 -9.78,1.5 -10.78,1.5 -10.78,1 -11.04,1 -11.04,-1 -10.78,-1 -10.78,-1.5 -9.78,-1.5 -9.78,-1.76 -7.78,-1.76 -7.78,-1.5 -1,-1.5 -1,-1.76 1,-1.76 1,-1.5 7.78,-1.5 7.78,-1.76 9.78,-1.76 9.78,-1.5 10.78,-1.5 10.78,-1 11.04,-1 11.04,1 10.78,1 10.78,1.5 9.78,1.5 9.78,1.76 7.78,1.76 7.78,1.5z"
     transform="matrix(1,0,0,-1,11.04,1.76)"
     fill="rgb(0,0,0)"
     stroke-linecap="round"
     stroke-linejoin="round"
     id="path1"
     style="fill:none;stroke:#0000ff;stroke-opacity:1;stroke-width:0.02;stroke-dasharray:none" /></svg>
