<?xml version="1.0" encoding="UTF-8" standalone="no"?>
<!-- Generator: Fusion 360, Shaper Origin Export Add-In, Version 1.9.0  -->

<svg
   shaper:fusionaddin="version:1.9.0"
   width="22.4cm"
   height="19.89cm"
   version="1.1"
   x="0cm"
   y="0cm"
   viewBox="0 0 22.4 19.89"
   enable-background="new 0 0 22.4 19.89"
   xml:space="preserve"
   id="svg19"
   sodipodi:docname="Top Plate Temp.svg"
   inkscape:version="1.4.2 (f4327f4, 2025-05-13)"
   xmlns:inkscape="http://www.inkscape.org/namespaces/inkscape"
   xmlns:sodipodi="http://sodipodi.sourceforge.net/DTD/sodipodi-0.dtd"
   xmlns="http://www.w3.org/2000/svg"
   xmlns:svg="http://www.w3.org/2000/svg"
   xmlns:shaper="http://www.shapertools.com/namespaces/shaper"><defs
     id="defs19" /><sodipodi:namedview
     id="namedview19"
     pagecolor="#ffffff"
     bordercolor="#000000"
     borderopacity="0.25"
     inkscape:showpageshadow="2"
     inkscape:pageopacity="0.0"
     inkscape:pagecheckerboard="0"
     inkscape:deskcolor="#d1d1d1"
     inkscape:document-units="cm"
     inkscape:zoom="0.55138157"
     inkscape:cx="253.90765"
     inkscape:cy="510.53574"
     inkscape:window-width="1920"
     inkscape:window-height="1009"
     inkscape:window-x="-8"
     inkscape:window-y="-8"
     inkscape:window-maximized="1"
     inkscape:current-layer="svg19" /><path
     d="M-11.2,-1 L-10.9,-1 -10.9,-7.045 -11.2,-7.045 -11.2,-9.045 -10.9,-9.045 -10.9,-9.945 10.9,-9.945 10.9,-9.045 11.2,-9.045 11.2,-7.045 10.9,-7.045 10.9,-1 11.2,-1 11.2,1 10.9,1 10.9,7.045 11.2,7.045 11.2,9.045 10.9,9.045 10.9,9.945 -10.9,9.945 -10.9,9.045 -11.2,9.045 -11.2,7.045 -10.9,7.045 -10.9,1 -11.2,1 -11.2,-1z"
     transform="matrix(1,0,0,-1,11.2,9.945)"
     fill="rgb(0,0,0)"
     stroke-linecap="round"
     stroke-linejoin="round"
     id="path1"
     style="fill:none;stroke:#0000ff;stroke-opacity:1;stroke-width:0.02;stroke-dasharray:none" /><path
     d="M3.5,5.845 L3.5,8.345 A0.5,0.5 180 0,0 4,8.845 L10,8.845 A0.5,0.5 90 0,0 10.5,8.345 L10.5,5.845 A0.5,0.5 0 0,0 10,5.345 L4,5.345 A0.5,0.5 270 0,0 3.5,5.845z"
     transform="matrix(1,0,0,-1,11.2,9.945)"
     fill="rgb(255,255,255)"
     stroke="rgb(0,0,0)"
     stroke-width="0.0010cm"
     stroke-linecap="round"
     stroke-linejoin="round"
     id="path2"
     style="fill:none;stroke:#0000ff;stroke-opacity:1;stroke-width:0.02;stroke-dasharray:none" /><path
     d="M7.9,9.345 L7.9,9.645 9.9,9.645 9.9,9.345 7.9,9.345z"
     transform="matrix(1,0,0,-1,11.2,9.945)"
     fill="rgb(255,255,255)"
     stroke="rgb(0,0,0)"
     stroke-width="0.0010cm"
     stroke-linecap="round"
     stroke-linejoin="round"
     id="path3"
     style="fill:none;stroke:#0000ff;stroke-opacity:1;stroke-width:0.02;stroke-dasharray:none" /><path
     d="M7.9,-2.645 L9.9,-2.645 9.9,-2.945 7.9,-2.945 7.9,-2.645z"
     transform="matrix(1,0,0,-1,11.2,9.945)"
     fill="rgb(255,255,255)"
     stroke="rgb(0,0,0)"
     stroke-width="0.0010cm"
     stroke-linecap="round"
     stroke-linejoin="round"
     id="path4"
     style="fill:none;stroke:#0000ff;stroke-opacity:1;stroke-width:0.02;stroke-dasharray:none" /><path
     d="M-9.9,-9.645 L-9.9,-9.345 -7.9,-9.345 -7.9,-9.645 -9.9,-9.645z"
     transform="matrix(1,0,0,-1,11.2,9.945)"
     fill="rgb(255,255,255)"
     stroke="rgb(0,0,0)"
     stroke-width="0.0010cm"
     stroke-linecap="round"
     stroke-linejoin="round"
     id="path5"
     style="fill:none;stroke:#0000ff;stroke-opacity:1;stroke-width:0.02;stroke-dasharray:none" /><path
     d="M0.5,4.395 A0.5,0.5 90 0,0 0.5,3.395 L-0.5,3.395 A0.5,0.5 270 0,0 -0.5,4.395 L0.5,4.395z"
     transform="matrix(1,0,0,-1,11.2,9.945)"
     fill="rgb(255,255,255)"
     stroke="rgb(0,0,0)"
     stroke-width="0.0010cm"
     stroke-linecap="round"
     stroke-linejoin="round"
     id="path6"
     style="fill:none;stroke:#0000ff;stroke-opacity:1;stroke-width:0.02;stroke-dasharray:none" /><path
     d="M-9.9,9.345 L-9.9,9.645 -7.9,9.645 -7.9,9.345 -9.9,9.345z"
     transform="matrix(1,0,0,-1,11.2,9.945)"
     fill="rgb(255,255,255)"
     stroke="rgb(0,0,0)"
     stroke-width="0.0010cm"
     stroke-linecap="round"
     stroke-linejoin="round"
     id="path7"
     style="fill:none;stroke:#0000ff;stroke-opacity:1;stroke-width:0.02;stroke-dasharray:none" /><path
     d="M-10,8.845 L-4,8.845 A0.5,0.5 90 0,0 -3.5,8.345 L-3.5,5.845 A0.5,0.5 0 0,0 -4,5.345 L-10,5.345 A0.5,0.5 270 0,0 -10.5,5.845 L-10.5,8.345 A0.5,0.5 180 0,0 -10,8.845z"
     transform="matrix(1,0,0,-1,11.2,9.945)"
     fill="rgb(255,255,255)"
     stroke="rgb(0,0,0)"
     stroke-width="0.0010cm"
     stroke-linecap="round"
     stroke-linejoin="round"
     id="path8"
     style="fill:none;stroke:#0000ff;stroke-opacity:1;stroke-width:0.02;stroke-dasharray:none" /><path
     d="M-7.9,2.945 L-7.9,2.645 -9.9,2.645 -9.9,2.945 -7.9,2.945z"
     transform="matrix(1,0,0,-1,11.2,9.945)"
     fill="rgb(255,255,255)"
     stroke="rgb(0,0,0)"
     stroke-width="0.0010cm"
     stroke-linecap="round"
     stroke-linejoin="round"
     id="path9"
     style="fill:none;stroke:#0000ff;stroke-opacity:1;stroke-width:0.02;stroke-dasharray:none" /><path
     d="M-10,-5.345 L-4,-5.345 A0.5,0.5 90 0,0 -3.5,-5.845 L-3.5,-8.345 A0.5,0.5 0 0,0 -4,-8.845 L-10,-8.845 A0.5,0.5 270 0,0 -10.5,-8.345 L-10.5,-5.845 A0.5,0.5 180 0,0 -10,-5.345z"
     transform="matrix(1,0,0,-1,11.2,9.945)"
     fill="rgb(255,255,255)"
     stroke="rgb(0,0,0)"
     stroke-width="0.0010cm"
     stroke-linecap="round"
     stroke-linejoin="round"
     id="path10"
     style="fill:none;stroke:#0000ff;stroke-opacity:1;stroke-width:0.02;stroke-dasharray:none" /><path
     d="M7.9,-5.145 L7.9,-4.845 9.9,-4.845 9.9,-5.145 7.9,-5.145z"
     transform="matrix(1,0,0,-1,11.2,9.945)"
     fill="rgb(255,255,255)"
     stroke="rgb(0,0,0)"
     stroke-width="0.0010cm"
     stroke-linecap="round"
     stroke-linejoin="round"
     id="path11"
     style="fill:none;stroke:#0000ff;stroke-opacity:1;stroke-width:0.02;stroke-dasharray:none" /><path
     d="M9.9,4.845 L7.9,4.845 7.9,5.145 9.9,5.145 9.9,4.845z"
     transform="matrix(1,0,0,-1,11.2,9.945)"
     fill="rgb(255,255,255)"
     stroke="rgb(0,0,0)"
     stroke-width="0.0010cm"
     stroke-linecap="round"
     stroke-linejoin="round"
     id="path12"
     style="fill:none;stroke:#0000ff;stroke-opacity:1;stroke-width:0.02;stroke-dasharray:none" /><path
     d="M-0.5,-3.395 L0.5,-3.395 A0.5,0.5 90 0,0 0.5,-4.395 L-0.5,-4.395 A0.5,0.5 270 0,0 -0.5,-3.395z"
     transform="matrix(1,0,0,-1,11.2,9.945)"
     fill="rgb(255,255,255)"
     stroke="rgb(0,0,0)"
     stroke-width="0.0010cm"
     stroke-linecap="round"
     stroke-linejoin="round"
     id="path13"
     style="fill:none;stroke:#0000ff;stroke-opacity:1;stroke-width:0.02;stroke-dasharray:none" /><path
     d="M10,-8.845 L4,-8.845 A0.5,0.5 270 0,0 3.5,-8.345 L3.5,-5.845 A0.5,0.5 180 0,0 4,-5.345 L10,-5.345 A0.5,0.5 90 0,0 10.5,-5.845 L10.5,-8.345 A0.5,0.5 0 0,0 10,-8.845z"
     transform="matrix(1,0,0,-1,11.2,9.945)"
     fill="rgb(255,255,255)"
     stroke="rgb(0,0,0)"
     stroke-width="0.0010cm"
     stroke-linecap="round"
     stroke-linejoin="round"
     id="path14"
     style="fill:none;stroke:#0000ff;stroke-opacity:1;stroke-width:0.02;stroke-dasharray:none" /><path
     d="M-9.9,-2.645 L-7.9,-2.645 -7.9,-2.945 -9.9,-2.945 -9.9,-2.645z"
     transform="matrix(1,0,0,-1,11.2,9.945)"
     fill="rgb(255,255,255)"
     stroke="rgb(0,0,0)"
     stroke-width="0.0010cm"
     stroke-linecap="round"
     stroke-linejoin="round"
     id="path15"
     style="fill:none;stroke:#0000ff;stroke-opacity:1;stroke-width:0.02;stroke-dasharray:none" /><path
     d="M-9.9,5.145 L-7.9,5.145 -7.9,4.845 -9.9,4.845 -9.9,5.145z"
     transform="matrix(1,0,0,-1,11.2,9.945)"
     fill="rgb(255,255,255)"
     stroke="rgb(0,0,0)"
     stroke-width="0.0010cm"
     stroke-linecap="round"
     stroke-linejoin="round"
     id="path16"
     style="fill:none;stroke:#0000ff;stroke-opacity:1;stroke-width:0.02;stroke-dasharray:none" /><path
     d="M7.9,2.645 L7.9,2.945 9.9,2.945 9.9,2.645 7.9,2.645z"
     transform="matrix(1,0,0,-1,11.2,9.945)"
     fill="rgb(255,255,255)"
     stroke="rgb(0,0,0)"
     stroke-width="0.0010cm"
     stroke-linecap="round"
     stroke-linejoin="round"
     id="path17"
     style="fill:none;stroke:#0000ff;stroke-opacity:1;stroke-width:0.02;stroke-dasharray:none" /><path
     d="M-9.9,-5.145 L-9.9,-4.845 -7.9,-4.845 -7.9,-5.145 -9.9,-5.145z"
     transform="matrix(1,0,0,-1,11.2,9.945)"
     fill="rgb(255,255,255)"
     stroke="rgb(0,0,0)"
     stroke-width="0.0010cm"
     stroke-linecap="round"
     stroke-linejoin="round"
     id="path18"
     style="fill:none;stroke:#0000ff;stroke-opacity:1;stroke-width:0.02;stroke-dasharray:none" /><path
     d="M7.9,-9.645 L7.9,-9.345 9.9,-9.345 9.9,-9.645 7.9,-9.645z"
     transform="matrix(1,0,0,-1,11.2,9.945)"
     fill="rgb(255,255,255)"
     stroke="rgb(0,0,0)"
     stroke-width="0.0010cm"
     stroke-linecap="round"
     stroke-linejoin="round"
     id="path19"
     style="fill:none;stroke:#0000ff;stroke-opacity:1;stroke-width:0.02;stroke-dasharray:none" /></svg>
